<?xml version="1.0" encoding="UTF-8" standalone="no"?>
<!-- Created with Inkscape (http://www.inkscape.org/) -->

<svg
   xmlns:dc="http://purl.org/dc/elements/1.1/"
   xmlns:cc="http://creativecommons.org/ns#"
   xmlns:rdf="http://www.w3.org/1999/02/22-rdf-syntax-ns#"
   xmlns:svg="http://www.w3.org/2000/svg"
   xmlns="http://www.w3.org/2000/svg"
   xmlns:sodipodi="http://sodipodi.sourceforge.net/DTD/sodipodi-0.dtd"
   xmlns:inkscape="http://www.inkscape.org/namespaces/inkscape"
   width="400"
   height="400"
   id="svg6386"
   version="1.1"
   inkscape:version="0.48.4 r9939"
   sodipodi:docname="Eco light bulb.svg">
  <title
     id="title5929">Bomb</title>
  <defs
     id="defs6388" />
  <sodipodi:namedview
     id="base"
     pagecolor="#ffffff"
     bordercolor="#666666"
     borderopacity="1.0"
     inkscape:pageopacity="0.0"
     inkscape:pageshadow="2"
     inkscape:zoom="0.61"
     inkscape:cx="198.36066"
     inkscape:cy="200"
     inkscape:document-units="px"
     inkscape:current-layer="layer1"
     showgrid="false"
     inkscape:window-width="944"
     inkscape:window-height="1041"
     inkscape:window-x="0"
     inkscape:window-y="0"
     inkscape:window-maximized="0" />
  <metadata
     id="metadata6391">
    <rdf:RDF>
      <cc:Work
         rdf:about="">
        <dc:format>image/svg+xml</dc:format>
        <dc:type
           rdf:resource="http://purl.org/dc/dcmitype/StillImage" />
        <dc:title>Bomb</dc:title>
        <dc:date>2017-01-16</dc:date>
        <dc:creator>
          <cc:Agent>
            <dc:title>m1981</dc:title>
          </cc:Agent>
        </dc:creator>
        <dc:rights>
          <cc:Agent>
            <dc:title>Public domain</dc:title>
          </cc:Agent>
        </dc:rights>
        <dc:publisher>
          <cc:Agent>
            <dc:title>Inkscape</dc:title>
          </cc:Agent>
        </dc:publisher>
        <dc:subject>
          <rdf:Bag>
            <rdf:li>icon</rdf:li>
            <rdf:li>bomb</rdf:li>
            <rdf:li>trap</rdf:li>
            <rdf:li>explosive</rdf:li>
            <rdf:li></rdf:li>
          </rdf:Bag>
        </dc:subject>
      </cc:Work>
    </rdf:RDF>
  </metadata>
  <g
     inkscape:label="Calque 1"
     inkscape:groupmode="layer"
     id="layer1"
     transform="translate(0,-652.36218)">
    <path
       sodipodi:nodetypes="cccsccccsccscccsscssscscssccssscscssscssscssscsscsccsccccccsccsccsccsccccccscccccssccssscccsssccssccccsccscccscscscsc"
       inkscape:connector-curvature="0"
       id="path4147"
       d="m 134.43589,686.13377 c -2.6075,0.049 -4.939,2.45478 -4.9062,5.0625 l 0,11.15627 c -0.037,2.64158 2.3581,5.07125 5,5.07125 2.6418,0 5.0373,-2.42967 5,-5.07125 l 0,-11.15627 c 0.034,-2.67022 -2.4238,-5.11251 -5.0938,-5.0625 z m -37.406204,15.53127 c -1.9759,0.004 -3.8887,1.2966 -4.6282,3.12883 -0.7396,1.83223 -0.2604,4.09082 1.1594,5.46492 l 7.875004,7.84375 c 1.8114,2.00714 5.3364,2.09744 7.2482,0.18568 1.9118,-1.91176 1.8215,-5.43681 -0.1857,-7.24818 l -7.875,-7.875 c -0.933404,-0.95217 -2.260404,-1.50607 -3.593704,-1.5 z m 75.750004,15.0625 c -5.2949,0.041 -10.5492,0.77588 -15.625,2.15625 -2.7358,0.74399 -5.4182,1.69583 -8.0313,2.8125 -4.6753,-3.03831 -10.0727,-4.47785 -15.4375,-4.3125 -6.8635,0.21154 -13.6402,3.038 -18.6875,8.40625 -10.0945,10.7365 -9.549,27.78053 1.1875,37.875 10.7365,10.09447 27.7493,9.54901 37.8438,-1.1875 1.9181,-1.88069 1.8812,-5.37442 -0.076,-7.2142 -1.9574,-1.83977 -5.4467,-1.66037 -7.2051,0.37045 -6.3925,6.79911 -16.9197,7.11128 -23.7188,0.71875 -6.7991,-6.39253 -7.1425,-16.91965 -0.75,-23.71875 4.2428,-4.51258 10.3104,-6.16307 15.9063,-4.90625 -2.9465,2.05031 -5.7255,4.38171 -8.3125,6.96875 -2.0071,1.81137 -3.2281,4.46572 -3.2973,7.16846 -0.069,2.70275 1.0142,5.41612 2.9259,7.32788 1.9118,1.91176 4.6252,2.99518 7.3279,2.92595 2.7028,-0.0692 5.3571,-1.29016 7.1685,-3.29729 10.3775,-10.37749 25.4212,-14.47391 39.625,-10.78125 19.8364,5.157 32.4485,23.60737 30.8125,43.3125 l -15.5938,0 c -7.3046,0 -13.1462,3.35795 -17.9687,8.12499 -4.8225,4.76705 -8.6563,11.62035 -8.6563,19.8125 l 0,21.375 c -17.6386,10.2496 -32.1759,25.76937 -41.0312,45.0625 -23.1809,50.5043 -0.9112,110.50638 49.5937,133.68747 50.5059,23.1815 110.5361,0.9145 133.7188,-49.59379 21.8148,-47.5281 3.326,-103.37017 -41.0313,-129.12493 l 0,-21.40625 c 0,-8.20263 -3.8569,-15.04882 -8.6875,-19.8125 -4.8305,-4.76367 -10.6641,-8.12499 -17.9687,-8.12499 l -12.3125,0 c 1.5078,-28.47755 -17.2226,-55.21543 -45.8438,-62.65625 -5.2594,-1.36733 -10.5801,-2.00978 -15.875,-1.96875 z m -91.687504,22.40625 c -2.6181,0.13084 -4.8811,2.63197 -4.7502,5.25001 0.131,2.61803 2.6321,4.88095 5.2502,4.74999 l 11.125,0 c 2.6415,0.0374 5.0712,-2.35816 5.0712,-5 0,-2.64184 -2.4297,-5.03738 -5.0712,-5 l -11.125,0 c -0.1666,-0.008 -0.3335,-0.008 -0.5,0 z m 23.781204,29.5 c -1.281,0.0346 -2.5409,0.5844 -3.4375,1.5 l -7.875004,7.875 c -2.0071,1.81137 -2.0974,5.33642 -0.1857,7.24818 1.9118,1.91175 5.4368,1.82145 7.248204,-0.18568 l 7.875,-7.84375 c 1.4401,-1.39193 1.9105,-3.6936 1.1321,-5.53897 -0.7784,-1.84536 -2.7552,-3.11475 -4.7571,-3.05478 z m 59.125,0 c -1.9758,0.003 -3.8886,1.2966 -4.6282,3.12883 -0.7395,1.83223 -0.2603,4.09082 1.1595,5.46492 l 7.875,7.84375 c 1.8113,2.00713 5.3364,2.09743 7.2481,0.18568 1.9118,-1.91176 1.8215,-5.43681 -0.1856,-7.24818 l -7.875,-7.875 c -0.9334,-0.95217 -2.2605,-1.50607 -3.5938,-1.5 z m -29.5625,12.21875 c -2.6075,0.0489 -4.939,2.45478 -4.9062,5.0625 l 0,11.12499 c -0.037,2.64157 2.3581,5.07125 5,5.07125 2.6418,0 5.0373,-2.42968 5,-5.07125 l 0,-11.12499 c 0.034,-2.67022 -2.4238,-5.11251 -5.0938,-5.0625 z m 64.4063,20.49999 47.9687,0 c -0.2845,0 2.1948,0.62519 3.9375,2.34375 1.7427,1.71856 2.7188,3.85031 2.7188,5.59375 l 0,27.25 c 0,3.68889 2.2313,7.28882 5.5312,8.9375 38.911,19.4344 55.6051,66.17701 37.3125,106.03121 -18.6712,40.67927 -66.537,58.39116 -107.2187,39.71877 -40.6827,-18.6729 -58.3919,-66.50422 -39.7188,-107.18748 7.8283,-17.05564 21.0938,-30.44301 37.2188,-38.53125 l 0.2812,-0.125 c 11.1728,-5.54957 23.4595,-8.46875 35.9375,-8.46875 2.6416,0.0374 5.2818,-1.0236 7.163,-2.8784 1.8813,-1.8548 2.9794,-4.47977 2.9794,-7.1216 0,-2.64183 -1.0981,-5.2668 -2.9794,-7.1216 -1.8812,-1.8548 -4.5214,-2.91576 -7.163,-2.8784 -10.4266,0 -20.7227,1.63578 -30.5937,4.78125 l 0,-12.40625 c 0,-1.75392 0.9836,-3.87857 2.7187,-5.59375 1.7352,-1.71518 4.1908,-2.34375 3.9063,-2.34375 z m -7,57.3125 c -0.9499,-0.0252 -1.9055,0.22738 -2.7188,0.71875 -15.4828,8.93899 -26.7791,23.66872 -31.4062,40.93749 -0.7967,2.56349 0.8872,5.62007 3.4798,6.31645 2.5925,0.69638 5.5813,-1.10507 6.1764,-3.7227 3.9418,-14.71068 13.5607,-27.26017 26.75,-34.87499 1.9031,-1.05192 2.9538,-3.4459 2.4397,-5.55869 -0.5141,-2.11279 -2.5473,-3.75638 -4.7209,-3.81631 z m 91.0312,70.18749 c -2.1213,0.10938 -4.0786,1.72055 -4.5937,3.78125 -8.2226,30.68674 -39.6256,48.81624 -70.3125,40.59374 -4.8468,-1.2987 -9.4983,-3.2099 -13.8438,-5.7188 -2.2694,-1.4028 -5.6248,-0.5579 -6.9593,1.7524 -1.3344,2.3103 -0.3898,5.639 1.9593,6.9039 5.1023,2.9458 10.5904,5.1939 16.2813,6.7187 35.9072,9.6213 72.9412,-11.7804 82.5625,-47.68744 0.4279,-1.52479 0.076,-3.24698 -0.9154,-4.48186 -0.9916,-1.23487 -2.5971,-1.95032 -4.1784,-1.86189 z"
       style="font-size:medium;font-style:normal;font-variant:normal;font-weight:normal;font-stretch:normal;text-indent:0;text-align:start;text-decoration:none;line-height:normal;letter-spacing:normal;word-spacing:normal;text-transform:none;direction:ltr;block-progression:tb;writing-mode:lr-tb;text-anchor:start;baseline-shift:baseline;color:#000000;fill:#4d4d4d;fill-opacity:1;stroke:none;stroke-width:20;marker:none;visibility:visible;display:inline;overflow:visible;enable-background:accumulate;font-family:Sans;-inkscape-font-specification:Sans" />
  </g>
</svg>
